<?xml version="1.0" encoding="UTF-8"?>
<svg width="366px" height="250px" viewBox="0 0 366 250" version="1.1" xmlns="http://www.w3.org/2000/svg" xmlns:xlink="http://www.w3.org/1999/xlink">
    <!-- Generator: Sketch 61.2 (89653) - https://sketch.com -->
    <title>PAW/Logo/Stacked/Light</title>
    <desc>Created with Sketch.</desc>
    <g id="Design" stroke="none" stroke-width="1" fill="none" fill-rule="evenodd">
        <g id="Activism_Desktop_comp" transform="translate(-537.000000, -6022.000000)">
            <g id="Storytelling/Desktop/Slots/Campaign-General-center-center" transform="translate(0.000000, 5723.000000)">
                <g id="PAW/Logo/Stacked/Light" transform="translate(536.500000, 299.000000)">
                    <g id="Group" transform="translate(0.500000, 0.000000)">
                        <path d="M31.9075724,19.1111728 C31.9075724,17.8772222 31.6609069,16.8642593 31.1694212,16.0741358 C30.6767052,15.2846296 30.0123691,14.6667284 29.1764128,14.222284 C28.3392262,13.7778395 27.3919321,13.4809259 26.3345304,13.3333951 C25.2758985,13.1846296 24.1809741,13.1105556 23.0497573,13.1105556 L17.5136229,13.1105556 L17.5136229,25.4815432 L22.8283119,25.4815432 C24.0093539,25.4815432 25.1411859,25.3833951 26.2238077,25.1852469 C27.3058145,24.9883333 28.2783287,24.642037 29.1395052,24.1482099 C29.9994514,23.655 30.6767052,23.0000617 31.1694212,22.1852469 C31.6609069,21.3704321 31.9075724,20.3457407 31.9075724,19.1111728 M44.529959,19.0370988 C44.529959,22.0994444 43.964043,24.6796914 42.8322111,26.7778395 C41.699764,28.8772222 40.1748666,30.5685802 38.2556733,31.8519136 C36.33648,33.1364815 34.1220262,34.0741358 31.6123119,34.6667284 C29.1025976,35.259321 26.4938481,35.5556173 23.7879086,35.5556173 L17.5136229,35.5556173 L17.5136229,55.3340123 L4.8912363,55.3340123 L4.8912363,2.88895062 L24.0831691,2.88895062 C26.9361237,2.88895062 29.6063859,3.17351852 32.0921103,3.74080247 C34.5766044,4.30932099 36.7424632,5.22228395 38.5878413,6.48154321 C40.4332195,7.74080247 41.8843018,9.39574074 42.9429338,11.4445062 C44.0009506,13.4938889 44.529959,16.0253704 44.529959,19.0370988" id="Fill-1" fill="#FFFFFF"></path>
                        <path d="M70.9127768,39.2593827 L69.3626592,39.2593827 C68.0339869,39.2593827 66.6930121,39.3223457 65.3397348,39.4445679 C63.9858424,39.5680247 62.7808104,39.8032099 61.7227936,40.1482716 C60.6641617,40.4939506 59.7906827,41.0001235 59.1023566,41.6667901 C58.4128003,42.3334568 58.0689449,43.2106173 58.0689449,44.2964198 C58.0689449,44.9883951 58.2282625,45.5816049 58.5487432,46.0741975 C58.8679936,46.568642 59.2745919,46.9630864 59.7666928,47.2593827 C60.2581785,47.555679 60.8247096,47.7667901 61.4644407,47.8890123 C62.1035566,48.0130864 62.7192978,48.0741975 63.3098188,48.0741975 C65.770323,48.0741975 67.6526087,47.3964198 68.956676,46.0371605 C70.2601281,44.6797531 70.9127768,42.8408642 70.9127768,40.518642 L70.9127768,39.2593827 Z M48.6944239,23.4816049 C50.8590524,21.4075309 53.3816844,19.8519753 56.2604743,18.8149383 C59.1392642,17.7779012 62.0795667,17.2593827 65.0813818,17.2593827 C68.1816171,17.2593827 70.8020541,17.6420988 72.9426928,18.4075309 C75.0833314,19.1735802 76.818602,20.3587654 78.1466592,21.9624691 C79.4753314,23.568642 80.4466155,25.592716 81.0623566,28.0371605 C81.6774827,30.4816049 81.9850457,33.3834568 81.9850457,36.7408642 L81.9850457,55.3340741 L70.9127768,55.3340741 L70.9127768,51.4075309 L70.6913314,51.4075309 C69.7563398,52.9390123 68.3409348,54.1241975 66.4469617,54.9630864 C64.5517583,55.8025926 62.4978524,56.2223457 60.2833987,56.2223457 C58.8070961,56.2223457 57.2809684,56.0248148 55.7068608,55.6297531 C54.131523,55.2353086 52.6915129,54.592716 51.388676,53.7038272 C50.0839936,52.8149383 49.0136743,51.6303704 48.177718,50.1482716 C47.3399163,48.6667901 46.9228608,46.8402469 46.9228608,44.6667901 C46.9228608,42.0001235 47.6480945,39.8519753 49.1004071,38.2223457 C50.5508743,36.592716 52.4220877,35.3334568 54.7103566,34.4445679 C56.9986255,33.555679 59.5452474,32.9630864 62.3502222,32.6667901 C65.155197,32.3704938 67.8863566,32.2223457 70.5437012,32.2223457 L70.5437012,31.6297531 C70.5437012,29.8032099 69.903355,28.4569136 68.6245079,27.592716 C67.3444306,26.7291358 65.770323,26.2964198 63.900955,26.2964198 C62.1773718,26.2964198 60.5165314,26.6667901 58.9178188,27.4075309 C57.317876,28.1482716 55.9529113,29.0371605 54.8210793,30.0741975 L48.6944239,23.4816049 Z" id="Fill-3" fill="#FFFFFF"></path>
                        <path d="M105.23761,27.4815432 L105.23761,41.6105556 C105.23761,43.3451235 105.569778,44.646358 106.234114,45.5142593 C106.89845,46.3821605 108.09118,46.8148765 109.814148,46.8148765 C110.404669,46.8148765 111.031482,46.7661111 111.696434,46.6667284 C112.36077,46.5685802 112.914383,46.4204321 113.357274,46.222284 L113.504904,55.1117901 C112.667718,55.4074691 111.609701,55.6667284 110.330854,55.8895679 C109.050161,56.1111728 107.771314,56.2229012 106.492467,56.2229012 C104.030733,56.2229012 101.964524,55.9124074 100.291382,55.2945062 C98.6182387,54.6766049 97.2772639,53.7846296 96.2690723,52.6204321 C95.2596504,51.4574691 94.5344168,50.0710494 94.0915261,48.4617901 C93.6486353,46.8531481 93.4265748,45.0580864 93.4265748,43.0778395 L93.4265748,27.4815432 L87.5219798,27.4815432 L87.5219798,18.4445062 L93.3527597,18.4445062 L93.3527597,8.74080247 L105.23761,8.74080247 L105.23761,18.4445062 L113.87398,18.4445062 L113.87398,27.4815432 L105.23761,27.4815432 Z" id="Fill-5" fill="#FFFFFF"></path>
                        <path d="M144.580765,39.2593827 L143.030647,39.2593827 C141.701975,39.2593827 140.361,39.3223457 139.007723,39.4445679 C137.65383,39.5680247 136.448183,39.8032099 135.390782,40.1482716 C134.33215,40.4939506 133.458671,41.0001235 132.770345,41.6667901 C132.080788,42.3334568 131.736933,43.2106173 131.736933,44.2964198 C131.736933,44.9883951 131.895635,45.5816049 132.216116,46.0741975 C132.535982,46.568642 132.941965,46.9630864 133.434681,47.2593827 C133.926166,47.555679 134.492082,47.7667901 135.132429,47.8890123 C135.771545,48.0130864 136.387286,48.0741975 136.977807,48.0741975 C139.437696,48.0741975 141.319982,47.3964198 142.624664,46.0371605 C143.928116,44.6797531 144.580765,42.8408642 144.580765,40.518642 L144.580765,39.2593827 Z M122.361797,23.4816049 C124.52704,21.4075309 127.049672,19.8519753 129.928462,18.8149383 C132.807252,17.7779012 135.747555,17.2593827 138.74937,17.2593827 C141.849605,17.2593827 144.470042,17.6420988 146.610681,18.4075309 C148.751319,19.1735802 150.485975,20.3587654 151.814647,21.9624691 C153.143319,23.568642 154.114603,25.592716 154.730345,28.0371605 C155.345471,30.4816049 155.653034,33.3834568 155.653034,36.7408642 L155.653034,55.3340741 L144.580765,55.3340741 L144.580765,51.4075309 L144.359319,51.4075309 C143.424328,52.9390123 142.008923,54.1241975 140.11495,54.9630864 C138.219746,55.8025926 136.16584,56.2223457 133.951387,56.2223457 C132.475084,56.2223457 130.948956,56.0248148 129.374849,55.6297531 C127.799511,55.2353086 126.359501,54.592716 125.056664,53.7038272 C123.751982,52.8149383 122.681662,51.6303704 121.845706,50.1482716 C121.007904,48.6667901 120.590849,46.8402469 120.590849,44.6667901 C120.590849,42.0001235 121.316082,39.8519753 122.768395,38.2223457 C124.218862,36.592716 126.089461,35.3334568 128.378345,34.4445679 C130.665998,33.555679 133.213235,32.9630864 136.01821,32.6667901 C138.823185,32.3704938 141.554345,32.2223457 144.211689,32.2223457 L144.211689,31.6297531 C144.211689,29.8032099 143.571343,28.4569136 142.292496,27.592716 C141.012418,26.7291358 139.437696,26.2964198 137.568328,26.2964198 C135.84536,26.2964198 134.184519,26.6667901 132.585807,27.4075309 C130.985864,28.1482716 129.620284,29.0371605 128.489067,30.0741975 L122.361797,23.4816049 Z" id="Fill-7" fill="#FFFFFF"></path>
                        <path d="M242.359664,36.7408025 C242.359664,35.5556173 242.162824,34.396358 241.769143,33.259321 C241.374232,32.1241358 240.809546,31.1235185 240.071395,30.259321 C239.333244,29.3957407 238.422242,28.692037 237.340235,28.1482099 C236.256998,27.605 235.002141,27.3333951 233.575664,27.3333951 C232.147341,27.3333951 230.892484,27.605 229.811092,28.1482099 C228.727855,28.692037 227.829156,29.3957407 227.116225,30.259321 C226.402679,31.1235185 225.861983,32.1241358 225.492908,33.259321 C225.123832,34.396358 224.939294,35.5556173 224.939294,36.7408025 C224.939294,37.9259877 225.123832,39.0870988 225.492908,40.222284 C225.861983,41.3587037 226.415597,42.3833951 227.153133,43.296358 C227.891284,44.2111728 228.801671,44.9389506 229.884908,45.4821605 C230.966914,46.0259877 232.221771,46.296358 233.648864,46.296358 C235.075956,46.296358 236.330813,46.0259877 237.41405,45.4821605 C238.495442,44.9389506 239.407059,44.2111728 240.144595,43.296358 C240.883361,42.3833951 241.436975,41.3587037 241.80605,40.222284 C242.175126,39.0870988 242.359664,37.9259877 242.359664,36.7408025 M254.022454,36.7408025 C254.022454,39.7537654 253.480528,42.4815432 252.398521,44.9259877 C251.315899,47.3704321 249.839597,49.4445062 247.969613,51.1482099 C246.099015,52.8519136 243.933771,54.1741358 241.473882,55.1117901 C239.012763,56.0488272 236.380639,56.5191975 233.575664,56.5191975 C230.818669,56.5191975 228.198232,56.0488272 225.713738,55.1117901 C223.228629,54.1741358 221.063385,52.8519136 219.218007,51.1482099 C217.372629,49.4445062 215.908013,47.3704321 214.826007,44.9259877 C213.743385,42.4815432 213.202689,39.7537654 213.202689,36.7408025 C213.202689,33.7290741 213.743385,31.0130247 214.826007,28.5926543 C215.908013,26.1735185 217.372629,24.1241358 219.218007,22.4445062 C221.063385,20.7661111 223.228629,19.4815432 225.713738,18.5926543 C228.198232,17.7037654 230.818669,17.259321 233.575664,17.259321 C236.380639,17.259321 239.012763,17.7037654 241.473882,18.5926543 C243.933771,19.4815432 246.099015,20.7661111 247.969613,22.4445062 C249.839597,24.1241358 251.315899,26.1735185 252.398521,28.5926543 C253.480528,31.0130247 254.022454,33.7290741 254.022454,36.7408025" id="Fill-9" fill="#FFFFFF"></path>
                        <path d="M286.459527,55.3337654 L286.459527,35.185 C286.459527,34.1485802 286.372794,33.1609259 286.201174,32.2226543 C286.028323,31.285 285.745365,30.4572222 285.3523,29.7405556 C284.958004,29.0251235 284.404391,28.4572222 283.691459,28.0368519 C282.977298,27.6183333 282.078599,27.4072222 280.997207,27.4072222 C279.91397,27.4072222 278.966676,27.6183333 278.155325,28.0368519 C277.343359,28.4572222 276.666105,29.0368519 276.125409,29.7775926 C275.582868,30.5183333 275.176885,31.3701852 274.907459,32.3337654 C274.636189,33.2961111 274.501476,34.2961111 274.501476,35.3337654 L274.501476,55.3337654 L262.321365,55.3337654 L262.321365,18.4442593 L274.05797,18.4442593 L274.05797,23.5553704 L274.206216,23.5553704 C274.649107,22.7664815 275.22671,21.9880864 275.940256,21.222037 C276.653187,20.4572222 277.490374,19.8029012 278.450586,19.2596914 C279.410182,18.7164815 280.454666,18.272037 281.587728,17.9257407 C282.718945,17.580679 283.923977,17.4072222 285.204054,17.4072222 C287.664559,17.4072222 289.755372,17.8516667 291.478955,18.7405556 C293.200693,19.6294444 294.590878,20.7782099 295.64951,22.185 C296.707527,23.5924074 297.469668,25.2103086 297.937779,27.0368519 C298.404659,28.8646296 298.639023,30.6924074 298.639023,32.5189506 L298.639023,55.3337654 L286.459527,55.3337654 Z" id="Fill-11" fill="#FFFFFF"></path>
                        <path d="M308.985996,55.3339506 L321.091677,55.3339506 L321.091677,18.4444444 L308.985996,18.4444444 L308.985996,55.3339506 Z M321.977458,6.66604938 C321.977458,7.60493827 321.792921,8.4808642 321.423845,9.2962963 C321.054769,10.1111111 320.562669,10.8148148 319.947543,11.4074074 C319.331801,12 318.59365,12.4697531 317.733089,12.8148148 C316.871297,13.1604938 315.973213,13.3333333 315.038837,13.3333333 C313.069818,13.3333333 311.421895,12.6790123 310.092608,11.3703704 C308.764551,10.0623457 308.100215,8.49382716 308.100215,6.66604938 C308.100215,5.77716049 308.27245,4.92592593 308.616921,4.11111111 C308.960776,3.2962963 309.452877,2.59259259 310.092608,1.99938272 C310.732339,1.40740741 311.47049,0.925925926 312.307677,0.555555556 C313.143633,0.184567901 314.053405,0 315.038837,0 C315.973213,0 316.871297,0.17345679 317.733089,0.517901235 C318.59365,0.864814815 319.331801,1.33333333 319.947543,1.92530864 C320.562669,2.51851852 321.054769,3.22222222 321.423845,4.03703704 C321.792921,4.85185185 321.977458,5.72901235 321.977458,6.66604938 L321.977458,6.66604938 Z" id="Fill-13" fill="#FFFFFF"></path>
                        <path d="M353.435251,39.2593827 L351.885133,39.2593827 C350.556461,39.2593827 349.215486,39.3223457 347.862209,39.4445679 C346.508316,39.5680247 345.302669,39.8032099 344.245268,40.1482716 C343.186636,40.4939506 342.313157,41.0001235 341.624831,41.6667901 C340.935274,42.3334568 340.591419,43.2106173 340.591419,44.2964198 C340.591419,44.9883951 340.750121,45.5816049 341.070602,46.0741975 C341.390468,46.568642 341.796451,46.9630864 342.289167,47.2593827 C342.780652,47.555679 343.346568,47.7667901 343.986915,47.8890123 C344.626031,48.0130864 345.241772,48.0741975 345.832293,48.0741975 C348.292182,48.0741975 350.174468,47.3964198 351.47915,46.0371605 C352.782602,44.6797531 353.435251,42.8408642 353.435251,40.518642 L353.435251,39.2593827 Z M331.216283,23.4816049 C333.381526,21.4075309 335.904158,19.8519753 338.782948,18.8149383 C341.661738,17.7779012 344.602041,17.2593827 347.603856,17.2593827 C350.704091,17.2593827 353.324528,17.6420988 355.465167,18.4075309 C357.605805,19.1735802 359.340461,20.3587654 360.669133,21.9624691 C361.997805,23.568642 362.969089,25.592716 363.584831,28.0371605 C364.199957,30.4816049 364.50752,33.3834568 364.50752,36.7408642 L364.50752,55.3340741 L353.435251,55.3340741 L353.435251,51.4075309 L353.213805,51.4075309 C352.278814,52.9390123 350.863409,54.1241975 348.969436,54.9630864 C347.074232,55.8025926 345.020326,56.2223457 342.805873,56.2223457 C341.32957,56.2223457 339.803442,56.0248148 338.229335,55.6297531 C336.653997,55.2353086 335.213987,54.592716 333.91115,53.7038272 C332.606468,52.8149383 331.536148,51.6303704 330.700192,50.1482716 C329.86239,48.6667901 329.445335,46.8402469 329.445335,44.6667901 C329.445335,42.0001235 330.170568,39.8519753 331.622881,38.2223457 C333.073348,36.592716 334.943947,35.3334568 337.232831,34.4445679 C339.520484,33.555679 342.067721,32.9630864 344.872696,32.6667901 C347.677671,32.3704938 350.408831,32.2223457 353.066175,32.2223457 L353.066175,31.6297531 C353.066175,29.8032099 352.425829,28.4569136 351.146982,27.592716 C349.866905,26.7291358 348.292182,26.2964198 346.422814,26.2964198 C344.699846,26.2964198 343.039005,26.6667901 341.440293,27.4075309 C339.84035,28.1482716 338.47477,29.0371605 337.343553,30.0741975 L331.216283,23.4816049 Z" id="Fill-15" fill="#FFFFFF"></path>
                        <path d="M184.525513,27.3272222 C189.984141,27.3272222 193.456528,31.6229012 193.456528,36.6574691 C193.456528,41.6945062 190.059802,46.063642 184.525513,46.063642 C179.066269,46.063642 175.890988,41.5457407 175.890988,36.6574691 C175.890988,31.5500617 179.066269,27.3272222 184.525513,27.3272222 M181.721768,55.6883333 C186.592951,55.6883333 190.574662,53.7624074 192.863546,50.8031481 L193.084376,50.8031481 L193.084376,53.0235185 C193.084376,59.1698148 189.763311,63.3173457 182.678904,63.3173457 C178.545872,63.3173457 176.066299,62.2574691 172.520713,60.263642 L164.452719,67.3154938 C169.397103,71.0161111 176.926245,73.0908025 183.344471,73.0908025 C196.405442,73.0908025 204.964306,66.2766049 204.964306,51.8389506 L204.964306,18.4408025 L193.529113,18.4408025 L193.529113,23.1803086 L193.380867,23.1803086 C190.795492,19.2574691 186.223876,17.4043827 181.649183,17.4043827 C170.577529,17.4043827 164.156229,26.5130247 164.156229,36.7333951 C164.156229,46.950679 170.577529,55.6883333 181.721768,55.6883333" id="Fill-16" fill="#FFFFFF"></path>
                        <path d="M365.861843,62.6179012 L211.034001,62.6179012 C209.769917,66.2790123 207.678488,69.7814815 205.170004,72.0475309 L365.861843,72.0475309 L365.861843,62.6179012 Z" id="Fill-17" fill="#6B8CE9"></path>
                        <polygon id="Fill-18" fill="#6B8CE9" points="4.85642017 62.6182099 160.900366 62.6182099 155.64596 67.3330247 160.900366 72.0478395 4.85642017 72.0478395 5.68434189e-14 67.3330247"></polygon>
                        <path d="M92.4947818,105.656296 L85.8514205,123.656296 L98.9905129,123.656296 L92.4947818,105.656296 Z M106.520271,144.100741 L102.459824,133.805062 L82.2344793,133.805062 L78.3960928,144.100741 L64.6664793,144.100741 L86.5895718,91.6562963 L98.8428827,91.6562963 L120.545145,144.100741 L106.520271,144.100741 Z" id="Fill-19" fill="#FFFFFF"></path>
                        <path d="M150.519991,119.138025 C149.82982,118.249136 148.896058,117.533704 147.714401,116.989877 C146.533974,116.446667 145.327097,116.174444 144.098075,116.174444 C142.817383,116.174444 141.662176,116.434321 140.628149,116.952222 C139.594737,117.471358 138.708956,118.163333 137.970805,119.026914 C137.232653,119.891111 136.65382,120.891111 136.236149,122.026914 C135.817864,123.163333 135.608721,124.372593 135.608721,125.656543 C135.608721,126.941111 135.804946,128.150988 136.199242,129.285556 C136.592922,130.422593 137.170526,131.422593 137.933897,132.286173 C138.696653,133.150988 139.606425,133.83 140.665057,134.32321 C141.723074,134.817654 142.916418,135.063951 144.24509,135.063951 C145.474727,135.063951 146.692677,134.83 147.898939,134.360247 C149.104586,133.891111 150.077101,133.212099 150.814637,132.32321 L157.531813,140.545432 C156.006301,142.026914 154.037282,143.188025 151.627218,144.026914 C149.215309,144.865802 146.655769,145.286173 143.950445,145.286173 C141.04582,145.286173 138.335574,144.841728 135.819094,143.95284 C133.301998,143.063951 131.115225,141.767654 129.25939,140.063951 C127.402324,138.360247 125.94263,136.299136 124.877847,133.878765 C123.813679,131.45963 123.281595,128.718889 123.281595,125.656543 C123.281595,122.644815 123.813679,119.928148 124.877847,117.508395 C125.94263,115.088642 127.402324,113.026914 129.25939,111.322593 C131.115225,109.619506 133.301998,108.311481 135.819094,107.396667 C138.335574,106.483704 141.02183,106.026914 143.87663,106.026914 C145.204687,106.026914 146.521057,106.15037 147.825739,106.396667 C149.128576,106.644815 150.383433,106.977531 151.590311,107.396667 C152.795343,107.817037 153.902569,108.335556 154.911991,108.95284 C155.919568,109.570741 156.794277,110.249136 157.531813,110.989877 L150.519991,119.138025 Z" id="Fill-20" fill="#FFFFFF"></path>
                        <path d="M180.19318,116.248704 L180.19318,130.377716 C180.19318,132.112284 180.525348,133.413519 181.189684,134.28142 C181.85402,135.149938 183.04675,135.582654 184.769718,135.582654 C185.360239,135.582654 185.987667,135.533889 186.652003,135.434506 C187.316339,135.335741 187.869953,135.187593 188.312844,134.990062 L188.460474,143.878951 C187.623287,144.175247 186.565271,144.434506 185.286424,144.656728 C184.006346,144.878951 182.726884,144.990062 181.448037,144.990062 C178.986918,144.990062 176.920094,144.679568 175.246951,144.061667 C173.573808,143.443765 172.232834,142.552407 171.224642,141.38821 C170.21522,140.22463 169.489987,138.83821 169.047096,137.229568 C168.604205,135.620926 168.38276,133.825247 168.38276,131.845 L168.38276,116.248704 L162.47755,116.248704 L162.47755,107.211667 L168.308945,107.211667 L168.308945,97.507963 L180.19318,97.507963 L180.19318,107.211667 L188.82955,107.211667 L188.82955,116.248704 L180.19318,116.248704 Z" id="Fill-21" fill="#FFFFFF"></path>
                        <path d="M198.10399,144.100617 L210.20967,144.100617 L210.20967,107.211728 L198.10399,107.211728 L198.10399,144.100617 Z M211.095452,95.4339506 C211.095452,96.3722222 210.910914,97.2487654 210.541838,98.0635802 C210.172763,98.8783951 209.680662,99.5820988 209.065536,100.174691 C208.449795,100.767284 207.711643,101.237037 206.851697,101.582099 C205.98929,101.928395 205.091206,102.100617 204.15683,102.100617 C202.188427,102.100617 200.539889,101.446296 199.211216,100.137654 C197.882544,98.8296296 197.218208,97.2617284 197.218208,95.4339506 C197.218208,94.5450617 197.390443,93.6932099 197.734914,92.8783951 C198.078769,92.0635802 198.57087,91.3598765 199.211216,90.767284 C199.850332,90.1746914 200.588484,89.6932099 201.42567,89.3228395 C202.262242,88.9524691 203.172013,88.7666667 204.15683,88.7666667 C205.091206,88.7666667 205.98929,88.9407407 206.851697,89.2858025 C207.711643,89.6314815 208.449795,90.1006173 209.065536,90.6925926 C209.680662,91.2858025 210.172763,91.9895062 210.541838,92.804321 C210.910914,93.6191358 211.095452,94.4962963 211.095452,95.4339506 L211.095452,95.4339506 Z" id="Fill-22" fill="#FFFFFF"></path>
                        <path d="M247.394532,125.508272 C247.394532,124.323086 247.197692,123.16321 246.804011,122.02679 C246.4091,120.891605 245.844414,119.890988 245.106263,119.02679 C244.368112,118.16321 243.45711,117.459506 242.375104,116.915679 C241.291867,116.372469 240.037009,116.100864 238.610532,116.100864 C237.182209,116.100864 235.927352,116.372469 234.845961,116.915679 C233.762724,117.459506 232.864025,118.16321 232.151709,119.02679 C231.437547,119.890988 230.896851,120.891605 230.527776,122.02679 C230.1587,123.16321 229.974162,124.323086 229.974162,125.508272 C229.974162,126.693457 230.1587,127.854568 230.527776,128.989753 C230.896851,130.126173 231.450465,131.150864 232.188616,132.063827 C232.926152,132.978025 233.836539,133.70642 234.919776,134.249012 C236.001783,134.79284 237.25664,135.063827 238.684347,135.063827 C240.110825,135.063827 241.365682,134.79284 242.448919,134.249012 C243.53031,133.70642 244.441927,132.978025 245.180078,132.063827 C245.91823,131.150864 246.471843,130.126173 246.840919,128.989753 C247.209994,127.854568 247.394532,126.693457 247.394532,125.508272 M259.057322,125.508272 C259.057322,128.521235 258.515396,131.249012 257.433389,133.693457 C256.350767,136.137901 254.874465,138.211975 253.004482,139.915679 C251.133883,141.619383 248.969255,142.940988 246.508751,143.878642 C244.047631,144.816296 241.415507,145.286667 238.610532,145.286667 C235.853537,145.286667 233.233715,144.816296 230.748606,143.878642 C228.263497,142.940988 226.098253,141.619383 224.252875,139.915679 C222.408112,138.211975 220.942882,136.137901 219.860875,133.693457 C218.778253,131.249012 218.237557,128.521235 218.237557,125.508272 C218.237557,122.496543 218.778253,119.780494 219.860875,117.360123 C220.942882,114.940988 222.408112,112.891605 224.252875,111.211975 C226.098253,109.53358 228.263497,108.249012 230.748606,107.360123 C233.233715,106.471235 235.853537,106.02679 238.610532,106.02679 C241.415507,106.02679 244.047631,106.471235 246.508751,107.360123 C248.969255,108.249012 251.133883,109.53358 253.004482,111.211975 C254.874465,112.891605 256.350767,114.940988 257.433389,117.360123 C258.515396,119.780494 259.057322,122.496543 259.057322,125.508272" id="Fill-23" fill="#FFFFFF"></path>
                        <path d="M291.197904,144.100926 L291.197904,123.952778 C291.197904,122.915741 291.111787,121.928704 290.939551,120.989815 C290.766701,120.05216 290.483743,119.224383 290.090677,118.508333 C289.696382,117.792901 289.142768,117.224383 288.429837,116.80463 C287.715676,116.385494 286.817592,116.174383 285.735585,116.174383 C284.652348,116.174383 283.705669,116.385494 282.893703,116.80463 C282.081736,117.224383 281.405097,117.804012 280.863787,118.54537 C280.321861,119.286111 279.915877,120.137963 279.645837,121.100926 C279.374566,122.063889 279.239854,123.063889 279.239854,124.100926 L279.239854,144.100926 L267.060358,144.100926 L267.060358,107.212037 L278.796963,107.212037 L278.796963,112.323148 L278.944593,112.323148 C279.387484,111.533642 279.965703,110.755864 280.679249,109.989198 C281.39218,109.224383 282.229366,108.570062 283.188963,108.026852 C284.14856,107.483642 285.193659,107.039198 286.326106,106.692901 C287.457323,106.348457 288.66297,106.175 289.943047,106.175 C292.402936,106.175 294.494365,106.618827 296.217333,107.508333 C297.939071,108.397222 299.329255,109.54537 300.387887,110.952778 C301.445904,112.360185 302.208045,113.978086 302.676156,115.80463 C303.143037,117.63179 303.3774,119.459568 303.3774,121.286111 L303.3774,144.100926 L291.197904,144.100926 Z" id="Fill-24" fill="#FFFFFF"></path>
                        <polygon id="Fill-25" fill="#75B671" points="63.3120333 160.814198 304.731785 160.814198 304.731785 151.385185 63.3120333 151.385185"></polygon>
                        <polygon id="Fill-26" fill="#FFFFFF" points="129.283995 232.868333 116.809238 232.868333 106.474506 197.386852 106.253675 197.386852 95.9195576 232.868333 83.3703711 232.868333 68.5335308 180.423272 82.1155139 180.423272 90.3828081 215.312778 90.6048686 215.312778 99.9049593 180.423272 113.044667 180.423272 122.419188 215.312778 122.640633 215.312778 131.055558 180.423272 144.19465 180.423272"></polygon>
                        <path d="M172.835411,214.275679 C172.835411,213.090494 172.637956,211.930617 172.24489,210.794198 C171.849979,209.658395 171.285293,208.658395 170.547142,207.794198 C169.808991,206.930617 168.897989,206.226914 167.815983,205.683086 C166.732746,205.139877 165.477888,204.868272 164.051411,204.868272 C162.623088,204.868272 161.368231,205.139877 160.286225,205.683086 C159.203603,206.226914 158.304904,206.930617 157.591972,207.794198 C156.878426,208.658395 156.33773,209.658395 155.968655,210.794198 C155.599579,211.930617 155.414426,213.090494 155.414426,214.275679 C155.414426,215.460864 155.599579,216.621975 155.968655,217.75716 C156.33773,218.89358 156.890729,219.918272 157.62888,220.831235 C158.367031,221.745432 159.276803,222.473827 160.36004,223.01642 C161.442046,223.560247 162.697519,223.831235 164.124611,223.831235 C165.551704,223.831235 166.806561,223.560247 167.889798,223.01642 C168.971189,222.473827 169.882191,221.745432 170.620342,220.831235 C171.359109,219.918272 171.912722,218.89358 172.281798,217.75716 C172.650873,216.621975 172.835411,215.460864 172.835411,214.275679 M184.497586,214.275679 C184.497586,217.288025 183.95566,220.01642 182.874268,222.460864 C181.791031,224.905309 180.314729,226.979383 178.445361,228.683086 C176.574762,230.38679 174.409519,231.708395 171.94963,232.646049 C169.487895,233.583704 166.855771,234.053457 164.051411,234.053457 C161.294416,234.053457 158.673979,233.583704 156.189485,232.646049 C153.704376,231.708395 151.539132,230.38679 149.693754,228.683086 C147.848376,226.979383 146.383761,224.905309 145.301754,222.460864 C144.219132,220.01642 143.678436,217.288025 143.678436,214.275679 C143.678436,211.263951 144.219132,208.547901 145.301754,206.127531 C146.383761,203.708395 147.848376,201.659012 149.693754,199.978765 C151.539132,198.300988 153.704376,197.01642 156.189485,196.127531 C158.673979,195.238642 161.294416,194.79358 164.051411,194.79358 C166.855771,194.79358 169.487895,195.238642 171.94963,196.127531 C174.409519,197.01642 176.574762,198.300988 178.445361,199.978765 C180.314729,201.659012 181.791031,203.708395 182.874268,206.127531 C183.95566,208.547901 184.497586,211.263951 184.497586,214.275679" id="Fill-27" fill="#FFFFFF"></path>
                        <path d="M216.186173,205.979383 C215.644247,205.831235 215.115239,205.732469 214.599148,205.683086 C214.082442,205.634321 213.576809,205.609012 213.085938,205.609012 C211.462005,205.609012 210.096426,205.905309 208.988584,206.495432 C207.881972,207.08679 206.99619,207.800988 206.331239,208.638025 C205.666903,209.475679 205.187105,210.38679 204.892459,211.371358 C204.597199,212.356543 204.448953,213.217654 204.448953,213.955926 L204.448953,232.868272 L192.343273,232.868272 L192.343273,196.02321 L204.006063,196.02321 L204.006063,201.356543 L204.153693,201.356543 C205.088069,199.467654 206.416742,197.925679 208.140325,196.732469 C209.862063,195.539259 211.855071,194.941728 214.11935,194.941728 C214.610221,194.941728 215.090019,194.967654 215.55813,195.015802 C216.025626,195.065802 216.407619,195.139877 216.702264,195.238642 L216.186173,205.979383 Z" id="Fill-28" fill="#FFFFFF"></path>
                        <polygon id="Fill-29" fill="#FFFFFF" points="262.69936 232.868333 247.71489 232.868333 235.683024 215.16463 235.461579 215.16463 235.461579 232.868333 223.282083 232.868333 223.282083 176.867716 235.461579 176.867716 235.461579 210.942407 235.683024 210.942407 247.419629 195.979444 262.109454 195.979444 247.936335 212.646111"></polygon>
                        <path d="M291.512357,206.867963 C290.52754,205.930309 289.371718,205.140185 288.043046,204.49821 C286.714373,203.856235 285.311886,203.53463 283.835584,203.53463 C282.703136,203.53463 281.658037,203.756852 280.698441,204.201296 C279.738844,204.645741 279.259046,205.41179 279.259046,206.497593 C279.259046,207.535247 279.787439,208.27537 280.846071,208.719815 C281.903473,209.164259 283.614138,209.658704 285.976222,210.201296 C287.353489,210.497593 288.744289,210.917963 290.146777,211.460556 C291.549264,212.004383 292.815809,212.719815 293.948256,213.608704 C295.080088,214.497593 295.989859,215.58463 296.679415,216.867963 C297.368357,218.152531 297.712827,219.682778 297.712827,221.461173 C297.712827,223.782778 297.244716,225.745741 296.31034,227.350062 C295.375348,228.955 294.157399,230.251296 292.656491,231.238333 C291.154968,232.227222 289.470138,232.942654 287.600155,233.387099 C285.729557,233.831543 283.860189,234.053765 281.990205,234.053765 C278.987775,234.053765 276.048088,233.572284 273.169298,232.609321 C270.290508,231.646358 267.891516,230.227222 265.972323,228.350062 L272.763315,221.164259 C273.845321,222.350062 275.173994,223.338333 276.749331,224.127222 C278.323439,224.917963 279.997197,225.313025 281.76876,225.313025 C282.752962,225.313025 283.724861,225.078457 284.684457,224.608704 C285.644054,224.140185 286.123852,223.313025 286.123852,222.12784 C286.123852,220.992037 285.533331,220.152531 284.352289,219.608704 C283.171247,219.066111 281.325869,218.497593 278.816155,217.905 C277.536078,217.608704 276.257231,217.214259 274.977768,216.719815 C273.697691,216.227222 272.553557,215.560556 271.545365,214.719815 C270.535943,213.880926 269.711674,212.843889 269.072558,211.608704 C268.432212,210.37537 268.112347,208.893272 268.112347,207.164259 C268.112347,204.942037 268.579842,203.053148 269.515449,201.497593 C270.449826,199.942037 271.656088,198.671049 273.13239,197.682778 C274.608693,196.695741 276.244313,195.967346 278.041096,195.497593 C279.837264,195.029074 281.62113,194.793889 283.392693,194.793889 C286.148457,194.793889 288.84271,195.227222 291.475449,196.090185 C294.107573,196.955 296.33433,198.251296 298.155718,199.979074 L291.512357,206.867963 Z" id="Fill-30" fill="#FFFFFF"></path>
                        <polygon id="Fill-31" fill="#F3C500" points="68.5337153 240.152469 294.750626 240.152469 299.510472 244.867284 294.750626 249.582099 68.5337153 249.582099"></polygon>
                    </g>
                </g>
            </g>
        </g>
    </g>
</svg>