<svg xmlns:xlink="http://www.w3.org/1999/xlink" xmlns="http://www.w3.org/2000/svg" class="icon--navigation-primary--hamburger" width="40"  height="40" ><defs><symbol viewBox="0 0 40 40" aria-labelledby="licon--navigation-primary--hamburger-desc licon--navigation-primary--hamburger-title" id="icon--navigation-primary--hamburger" xmlns="http://www.w3.org/2000/svg"><title id="licon--navigation-primary--hamburger-title">navigation primary hamburger</title><desc id="licon--navigation-primary--hamburger-desc">navigation primary hamburger</desc><path d="M11 18h18c.6 0 1-.4 1-1v-2c0-.6-.4-1-1-1H11c-.6 0-1 .4-1 1v2c0 .6.4 1 1 1zm18 4H11c-.6 0-1 .4-1 1v2c0 .6.4 1 1 1h18c.6 0 1-.4 1-1v-2c0-.6-.4-1-1-1z"></path></symbol></defs>
<use href="#icon--navigation-primary--hamburger"></use>
</svg>