<svg width="172" height="32" viewBox="0 0 172 32" fill="none" xmlns="http://www.w3.org/2000/svg">
<path d="M32.8751 15.0588C32.677 15.0588 31.8849 15.0588 31.8849 15.0588C29.9044 15.0588 28.5181 16.3467 28.5181 18.3282C28.5181 19.8142 28.9142 21.4985 30.8946 21.4985C32.677 21.4985 33.0731 20.2105 33.0731 18.7245V15.257C33.0731 15.1579 33.0731 15.0588 32.8751 15.0588ZM40.4007 22.5882C40.5987 22.5882 41.0938 22.5882 41.2919 22.5882C41.5889 22.5882 41.4899 22.7864 41.4899 22.7864C41.4899 22.7864 41.4899 24.3715 41.4899 24.6687C41.4899 24.9659 41.1929 24.8669 41.1929 24.8669C39.8066 24.8669 33.7663 24.8669 33.7663 24.8669C33.7663 24.8669 33.5682 24.8669 33.5682 24.6687C33.4692 24.2724 33.3702 23.678 33.2712 23.2817C33.1721 22.8854 32.9741 23.2817 32.9741 23.2817C31.4888 24.4706 29.8054 25.3622 27.726 25.3622C24.1612 25.3622 21.4876 23.0836 21.4876 19.6161C21.4876 15.257 24.2602 12.6811 27.726 12.6811L32.9741 12.582C32.9741 12.582 33.0731 12.582 33.0731 12.3839C33.0731 12.1858 33.0731 11.7895 33.0731 11.7895C33.0731 10.2043 32.1819 9.60991 30.4986 9.60991C28.3201 9.60991 27.3299 10.4025 26.2406 11.6904C26.2406 11.6904 26.1416 11.8885 25.9436 11.7895C25.7455 11.6904 23.8641 10.9969 23.8641 10.9969C23.8641 10.9969 23.6661 10.9969 23.7651 10.7988C23.8641 10.6006 26.1416 5.05263 26.1416 5.05263C26.1416 5.05263 26.1416 4.85449 26.3397 4.95356C26.6367 5.05263 28.1221 5.54799 28.3201 5.64706C28.5181 5.74613 28.4191 5.94427 28.4191 5.94427C28.4191 5.94427 28.3201 6.24149 28.2211 6.43963C28.023 6.83591 28.3201 6.73684 28.3201 6.73684C29.8054 6.14242 31.2907 5.94427 32.776 5.94427C37.133 5.94427 40.0046 7.72755 40.0046 12.1858V22.4892C40.2027 22.192 40.2026 22.5882 40.4007 22.5882ZM40.7968 7.13313C43.7674 6.34056 46.342 4.35913 47.5302 1.58514C47.5302 1.58514 47.5302 1.387 47.7283 1.387C47.9263 1.387 49.4116 1.68421 49.7087 1.78328C49.9067 1.78328 49.8077 1.98142 49.8077 1.98142C49.6097 2.87307 49.6097 3.96285 49.6097 4.75542C49.6097 4.75542 49.6097 5.94427 49.6097 6.14241C49.6097 6.34056 49.7087 6.34056 49.7087 6.34056C49.7087 6.34056 52.6793 6.34056 52.8774 6.34056C53.0754 6.34056 52.9764 6.5387 52.9764 6.5387C52.9764 6.5387 52.4813 8.91641 52.4813 9.11455C52.4813 9.31269 52.2832 9.31269 52.2832 9.31269C52.2832 9.31269 50.0058 9.31269 49.7087 9.31269C49.5107 9.31269 49.5107 9.41177 49.5107 9.41177V20.2105C49.5107 21.3994 50.5009 21.5975 51.095 21.5975C51.6891 21.5975 51.7881 21.5975 52.2832 21.3994C52.2832 21.3994 52.4813 21.2012 52.4813 21.4985C52.5803 21.6966 53.1744 23.1827 53.2735 23.3808C53.3725 23.5789 53.1744 23.5789 53.1744 23.5789C50.6989 25.3622 50.4018 25.4613 47.2332 25.4613C43.6684 25.4613 42.2821 23.7771 42.2821 20.5077V9.31269C42.2821 9.31269 42.3811 9.21362 42.1831 9.21362C41.787 9.21362 40.4997 9.21362 40.4997 9.21362C40.4997 9.21362 40.4007 9.31269 40.4007 9.01548C40.4007 8.52012 40.4007 7.43034 40.4007 7.2322C40.6978 7.13313 40.7968 7.13313 40.7968 7.13313ZM93.4761 15.5542C93.4761 9.41177 98.3282 5.74613 104.467 5.74613C110.706 5.74613 115.558 9.51084 115.558 15.5542C115.558 21.6966 110.706 25.4613 104.467 25.4613C98.2291 25.4613 93.4761 21.6966 93.4761 15.5542ZM100.606 12.8793C100.606 15.6533 101.794 22.5882 105.755 22.5882C107.834 22.5882 108.428 20.3096 108.428 18.3282C108.428 15.5542 107.24 8.6192 103.279 8.6192C100.606 8.52012 100.606 11.4923 100.606 12.8793ZM137.442 24.8669H127.837C127.837 24.8669 127.638 24.8669 127.638 24.7678C127.638 24.5697 127.638 22.9845 127.638 22.7864C127.638 22.5882 127.837 22.5882 127.837 22.5882C127.837 22.5882 128.827 22.5882 128.926 22.5882C129.124 22.5882 129.025 22.4892 129.025 22.4892V11.8885C129.025 10.7988 128.035 10.2043 126.945 10.2043C125.658 10.2043 124.767 10.8978 123.876 11.5913C123.876 11.5913 123.777 11.6904 123.777 11.8885C123.777 12.0867 123.777 22.3901 123.777 22.3901C123.777 22.3901 123.777 22.4892 123.876 22.4892C123.975 22.4892 125.064 22.4892 125.064 22.4892C125.064 22.4892 125.262 22.3901 125.262 22.6873C125.262 22.8854 125.262 24.5697 125.262 24.6687C125.262 24.8669 125.163 24.7678 125.163 24.7678H115.36C115.36 24.7678 115.261 24.8669 115.261 24.5697C115.261 24.3715 115.261 22.7864 115.261 22.6873C115.261 22.4892 115.36 22.4892 115.36 22.4892C115.36 22.4892 116.251 22.4892 116.449 22.4892C116.647 22.4892 116.548 22.291 116.548 22.291V10.0062C116.548 10.0062 116.647 9.80805 116.35 9.90712C116.053 10.0062 115.36 10.2043 115.36 10.2043C115.36 10.2043 115.162 10.3034 115.162 10.1053C115.162 9.90712 115.162 8.32198 115.162 8.22291C115.162 8.02477 115.36 8.02477 115.36 8.02477L123.579 5.8452C123.579 5.8452 123.777 5.74613 123.777 5.94427C123.777 6.14242 123.777 8.42105 123.777 8.6192C123.777 8.91641 123.975 8.6192 123.975 8.6192C125.856 7.13313 127.837 5.64706 130.51 5.64706C135.461 5.64706 136.154 8.91641 136.154 10.9969V22.291C136.154 22.291 136.154 22.4892 136.253 22.4892C136.451 22.4892 137.244 22.4892 137.244 22.4892C137.244 22.4892 137.442 22.4892 137.442 22.6873C137.442 22.8854 137.442 24.4706 137.442 24.5697C137.64 24.9659 137.442 24.8669 137.442 24.8669ZM147.344 5.74613L139.125 8.02477C139.125 8.02477 138.927 8.02477 138.927 8.22291C138.927 8.42105 138.927 9.80805 138.927 10.1053C138.927 10.4025 139.125 10.2043 139.125 10.2043C139.125 10.2043 139.62 10.1053 140.115 10.0062C140.313 10.0062 140.313 10.2043 140.313 10.3034C140.313 10.5015 140.313 22.3901 140.313 22.3901C140.313 22.3901 140.412 22.5882 140.115 22.5882C139.917 22.5882 138.927 22.5882 138.927 22.5882C138.927 22.5882 138.729 22.4892 138.729 22.7864C138.729 23.0836 138.729 24.4706 138.729 24.6687C138.729 24.8669 138.927 24.8669 138.927 24.8669C138.927 24.8669 148.235 24.8669 148.532 24.8669C148.73 24.8669 148.73 24.6687 148.73 24.6687C148.73 24.6687 148.73 23.0836 148.73 22.7864C148.73 22.4892 148.532 22.5882 148.532 22.5882C148.532 22.5882 147.839 22.5882 147.542 22.5882C147.344 22.5882 147.344 22.3901 147.344 22.3901C147.344 22.3901 147.344 6.04334 147.344 5.8452C147.542 5.64706 147.344 5.74613 147.344 5.74613ZM144.373 0C146.056 0 147.839 0.396285 147.839 2.37771C147.839 4.75542 144.769 5.64706 142.789 5.64706C141.204 5.64706 140.115 4.85449 140.115 3.26935C140.214 1.387 142.69 0 144.373 0ZM65.057 15.0588C64.859 15.0588 64.0668 15.0588 64.0668 15.0588C62.0864 15.0588 60.7001 16.3467 60.7001 18.3282C60.7001 19.8142 61.0961 21.4985 63.0766 21.4985C64.859 21.4985 65.255 20.2105 65.255 18.7245V15.257C65.255 15.1579 65.3541 15.0588 65.057 15.0588ZM72.5826 22.5882C72.7807 22.5882 73.2758 22.5882 73.4738 22.5882C73.7709 22.5882 73.6719 22.7864 73.6719 22.7864C73.6719 22.7864 73.6719 24.3715 73.6719 24.6687C73.6719 24.9659 73.3748 24.8669 73.3748 24.8669C71.9885 24.8669 65.9482 24.8669 65.9482 24.8669C65.9482 24.8669 65.7501 24.8669 65.7501 24.6687C65.6511 24.2724 65.5521 23.678 65.4531 23.2817C65.3541 22.8854 65.156 23.2817 65.156 23.2817C63.6707 24.4706 61.9873 25.3622 59.9079 25.3622C56.3431 25.3622 53.6695 23.0836 53.6695 19.6161C53.6695 15.257 56.4421 12.6811 59.9079 12.6811L65.156 12.582C65.156 12.582 65.255 12.582 65.255 12.3839C65.255 12.1858 65.255 11.7895 65.255 11.7895C65.255 10.2043 64.3638 9.60991 62.6805 9.60991C60.502 9.60991 59.5118 10.4025 58.4226 11.6904C58.4226 11.6904 58.3235 11.8885 58.1255 11.7895C57.9275 11.6904 56.0461 10.9969 56.0461 10.9969C56.0461 10.9969 55.848 10.9969 55.947 10.7988C56.0461 10.6006 58.3235 5.05263 58.3235 5.05263C58.3235 5.05263 58.3235 4.85449 58.5216 4.95356C58.8187 5.05263 60.304 5.54799 60.502 5.64706C60.7001 5.74613 60.601 5.94427 60.601 5.94427C60.601 5.94427 60.502 6.24149 60.403 6.43963C60.205 6.83591 60.502 6.73684 60.502 6.73684C61.9873 6.14242 63.4727 5.94427 64.958 5.94427C69.3149 5.94427 72.1865 7.72755 72.1865 12.1858V22.4892C72.3846 22.192 72.3846 22.5882 72.5826 22.5882ZM80.1082 10.6006C80.1082 12.6811 81.2965 18.3282 84.2671 18.3282C85.7524 18.3282 86.3466 17.6347 86.3466 15.7523C86.3466 13.6718 85.1583 8.02477 82.1877 8.02477C80.7024 8.02477 80.1082 8.81734 80.1082 10.6006ZM83.1779 25.7585C82.8808 26.0557 82.5838 27.3437 82.5838 28.1362C82.5838 29.1269 83.0789 30.1176 84.1681 30.1176C85.1583 30.1176 85.6534 29.6223 85.6534 28.7307C85.6534 27.0464 84.7622 26.452 83.475 25.6594C83.475 25.7585 83.3759 25.6594 83.1779 25.7585ZM91.0006 6.24149C90.6045 6.04334 90.5055 5.94427 89.7133 5.94427C89.2182 5.94427 89.0202 6.34056 89.0202 6.73684C89.0202 7.52941 92.6839 8.71827 92.6839 13.0774C92.6839 18.9226 87.2378 20.2105 82.5838 21.3994C82.5838 21.3994 82.0887 21.4985 82.5838 21.5975C85.7525 21.8947 92.0898 22.6873 92.0898 26.8483C92.0898 31.0093 86.4456 32 84.0691 32C80.6033 32 77.1376 31.3065 77.1376 28.2353C77.1376 26.452 79.019 25.2632 80.7024 24.9659C80.7024 24.9659 81.1975 24.8669 80.7024 24.8669C80.1082 24.7678 77.0386 24.5697 75.9493 24.7678C75.9493 24.7678 75.7513 24.7678 75.6523 24.5697C75.5533 24.2724 74.9591 22.6873 74.8601 22.5882C74.7611 22.291 74.9591 22.291 74.9591 22.291C77.2366 21.8947 79.3161 20.7059 80.2073 20.4087C80.7024 20.2105 80.2073 20.2105 80.2073 20.2105C76.9396 19.6161 73.7709 17.4365 73.7709 13.5728C73.7709 8.12384 78.2268 5.74613 82.4847 5.74613C84.4652 5.74613 85.5544 6.04334 86.6436 6.24149C86.6436 6.24149 86.8417 6.34056 86.8417 6.04334C86.9407 5.74613 87.2378 4.75542 87.2378 4.75542C87.7329 3.36842 88.426 2.77399 90.5055 2.77399C90.9016 2.77399 91.2976 2.87307 91.6937 2.87307C91.6937 2.87307 91.8918 2.77399 91.8918 3.07121C91.8918 3.26935 91.1986 6.04334 91.0996 6.14241C91.0996 6.43963 91.0006 6.24149 91.0006 6.24149ZM160.315 15.0588C160.117 15.0588 159.325 15.0588 159.325 15.0588C157.345 15.0588 155.959 16.3467 155.959 18.3282C155.959 19.8142 156.355 21.4985 158.335 21.4985C160.117 21.4985 160.514 20.2105 160.514 18.7245V15.257C160.514 15.1579 160.613 15.0588 160.315 15.0588ZM167.841 22.5882C168.039 22.5882 168.534 22.5882 168.732 22.5882C169.029 22.5882 168.93 22.7864 168.93 22.7864C168.93 22.7864 168.93 24.3715 168.93 24.6687C168.93 24.9659 168.633 24.8669 168.633 24.8669C167.247 24.8669 161.207 24.8669 161.207 24.8669C161.207 24.8669 161.009 24.8669 161.009 24.6687C160.91 24.2724 160.811 23.678 160.712 23.2817C160.613 22.8854 160.415 23.2817 160.415 23.2817C158.929 24.4706 157.246 25.3622 155.166 25.3622C151.602 25.3622 148.928 23.0836 148.928 19.6161C148.928 15.257 151.701 12.6811 155.166 12.6811L160.415 12.582C160.415 12.582 160.514 12.582 160.514 12.3839C160.514 12.1858 160.514 11.7895 160.514 11.7895C160.514 10.2043 159.622 9.60991 157.939 9.60991C155.761 9.60991 154.77 10.4025 153.681 11.6904C153.681 11.6904 153.582 11.8885 153.384 11.7895C153.186 11.6904 151.305 10.9969 151.305 10.9969C151.305 10.9969 151.107 10.9969 151.206 10.7988C151.305 10.6006 153.582 5.05263 153.582 5.05263C153.582 5.05263 153.582 4.85449 153.78 4.95356C154.077 5.05263 155.562 5.54799 155.761 5.64706C155.959 5.74613 155.86 5.94427 155.86 5.94427C155.86 5.94427 155.761 6.24149 155.661 6.43963C155.463 6.83591 155.761 6.73684 155.761 6.73684C157.246 6.14242 158.731 5.94427 160.216 5.94427C164.573 5.94427 167.445 7.72755 167.445 12.1858V22.4892C167.643 22.192 167.643 22.5882 167.841 22.5882ZM8.51583 10.2043C8.51583 10.5015 8.51583 19.517 8.51583 19.517C8.51583 21.2012 9.10996 22.5882 10.8923 22.5882C13.2689 22.5882 14.2591 21.1022 14.2591 16.9412C14.2591 10.1053 10.7933 9.80805 9.60507 9.80805L8.71387 9.90712C8.71387 9.90712 8.51583 9.90712 8.51583 10.2043ZM8.71387 7.43034C10.3972 6.43963 11.6845 5.74613 13.4669 5.74613C17.9229 5.74613 21.4876 9.41176 21.4876 14.7616C21.4876 20.1115 18.1209 25.4613 12.3777 25.4613C11.2884 25.4613 9.80311 25.3622 8.71387 24.7678C8.71387 24.7678 8.51583 24.6687 8.51583 24.8669C8.51583 25.065 8.51583 28.1362 8.51583 28.1362C8.51583 28.1362 8.51583 28.4334 8.71387 28.4334C9.01094 28.4334 10.7933 28.4334 10.7933 28.4334C10.7933 28.4334 10.9914 28.4334 10.9914 28.6316C10.9914 29.0279 10.9914 30.1176 10.9914 30.4149C11.0904 30.7121 10.8923 30.7121 10.8923 30.7121H0.297064C0.297064 30.7121 0 30.7121 0 30.5139C0 30.2167 0 29.0279 0 28.7307C0 28.4334 0.198043 28.5325 0.198043 28.5325C0.198043 28.5325 0.79217 28.5325 1.08923 28.5325C1.3863 28.5325 1.3863 28.2353 1.3863 28.2353C1.3863 28.2353 1.3863 10.3034 1.3863 10.1053C1.3863 9.80805 1.18826 9.90712 1.18826 9.90712L0.198043 10.1053C0.198043 10.1053 0 10.2043 0 9.90712C0 9.60991 0 8.22291 0 8.02477C0 7.82663 0.198043 7.82663 0.198043 7.82663L8.31779 5.74613C8.31779 5.74613 8.51583 5.64706 8.51583 5.8452C8.51583 6.04334 8.51583 7.03406 8.51583 7.2322C8.51583 7.43034 8.71387 7.43034 8.71387 7.43034Z" fill="black"/>
<path d="M166.653 4.26006C166.653 2.77399 167.841 1.6842 169.326 1.6842C170.713 1.6842 172 2.77399 172 4.26006C172 5.74612 170.812 6.93498 169.326 6.93498C167.94 6.93498 166.653 5.74612 166.653 4.26006ZM169.326 6.43962C170.515 6.43962 171.406 5.54798 171.406 4.26006C171.406 2.97213 170.515 2.08049 169.326 2.08049C168.138 2.08049 167.148 2.97213 167.148 4.26006C167.247 5.54798 168.138 6.43962 169.326 6.43962ZM168.831 5.74612H168.336V2.77399H169.524C170.218 2.77399 170.614 3.0712 170.614 3.66563C170.614 4.16098 170.317 4.4582 169.822 4.4582L170.713 5.74612H170.218L169.326 4.4582H168.831V5.74612ZM169.326 4.06191C169.722 4.06191 170.02 4.06191 170.02 3.56656C170.02 3.17027 169.722 3.17027 169.326 3.17027H168.732V4.06191H169.326Z" fill="black"/>
</svg>
